# xmcd
# 
# Track frame offsets:
#     150
#     24326
#     53453
#     65879
#     99203
#     135276
#     158940
#     188124
#     209079
#     245779
# 
# Disc length: 3719
# 
# Revision: 0
# Processed by: cddbd v1.5.2PL0 Copyright (c) Steve Scherf et al.
# Submitted via: fre:ac v1.0.31
# 
DISCID=870e850a
DTITLE=Kevin Hays - Mark Turner - Marc Miralta - Where Are You
DYEAR=2019
DGENRE=Jazz
TTITLE0=Year of the Snake
TTITLE1=Pedra d'Aigua
TTITLE2=Donna Lee
TTITLE3=Elena
TTITLE4=Please Remember Me
TTITLE5=Nigeria
TTITLE6=Where Are You?
TTITLE7=Addaia
TTITLE8=Law Years
TTITLE9=Waltz for Wollesen
EXTD=
EXTT0=
EXTT1=
EXTT2=
EXTT3=
EXTT4=
EXTT5=
EXTT6=
EXTT7=
EXTT8=
EXTT9=
PLAYORDER=
